<svg xmlns="http://www.w3.org/2000/svg" viewBox="0 0 96 96" width="96" height="96">
  <rect width="96" height="96" fill="#0a0a12" rx="12"/>
  <!-- cap main -->
  <path d="M20 56 Q20 28 48 28 Q76 28 76 56 L76 60 L20 60 Z" fill="#1a2a1a" stroke="#050f06" stroke-width="2"/>
  <!-- visor -->
  <path d="M14 58 Q14 66 32 66 L64 66 Q82 66 82 58 Z" fill="#0f1608" stroke="#050f06" stroke-width="2"/>
  <!-- panel seams -->
  <path d="M48 28 L48 56" stroke="#0a1208" stroke-width="1"/>
  <path d="M32 30 Q36 44 40 56" stroke="#0a1208" stroke-width="1" fill="none"/>
  <path d="M64 30 Q60 44 56 56" stroke="#0a1208" stroke-width="1" fill="none"/>
  <!-- button -->
  <circle cx="48" cy="34" r="2" fill="#5fff8e"/>
  <!-- leaf logo -->
  <g transform="translate(48,48)" fill="#5fff8e" stroke="#1a3a1a" stroke-width="0.5">
    <path d="M0 -6 l-5 -2 l2 4 l-5 -1 l3 3 l-4 2 l5 1 l-2 4 l4 -2 l-1 5 l4 -3 l1 5 l1 -5 l4 3 l-1 -5 l4 2 l-2 -4 l5 -1 l-4 -2 l3 -3 l-5 1 l2 -4 z"/>
  </g>
</svg>
