<svg xmlns="http://www.w3.org/2000/svg" viewBox="0 0 96 96" width="96" height="96">
  <defs>
    <linearGradient id="wh" x1="0" x2="0" y1="0" y2="1">
      <stop offset="0" stop-color="#2d4a2d"/>
      <stop offset="1" stop-color="#0f2410"/>
    </linearGradient>
  </defs>
  <rect width="96" height="96" fill="#0a0a12" rx="12"/>
  <!-- hoodie body -->
  <path d="M20 34 Q28 22 48 22 Q68 22 76 34 L80 86 L16 86 Z" fill="url(#wh)" stroke="#0a1208" stroke-width="2"/>
  <!-- hood -->
  <path d="M30 26 Q48 10 66 26 Q60 30 48 28 Q36 30 30 26 Z" fill="#1a2a1a" stroke="#0a1208" stroke-width="1.5"/>
  <!-- pocket -->
  <rect x="30" y="56" width="36" height="18" rx="3" fill="#1a2a1a" stroke="#0a1208" stroke-width="1.5"/>
  <line x1="48" y1="56" x2="48" y2="74" stroke="#0a1208" stroke-width="1"/>
  <!-- drawstrings -->
  <line x1="42" y1="30" x2="40" y2="46" stroke="#d8ffd8" stroke-width="1.2"/>
  <line x1="54" y1="30" x2="56" y2="46" stroke="#d8ffd8" stroke-width="1.2"/>
  <!-- leaf logo -->
  <g transform="translate(48,44)" fill="#5fff8e" stroke="#1a3a1a" stroke-width="0.6">
    <path d="M0 -8 l-6 -3 l2 5 l-6 -1 l4 4 l-5 2 l7 1 l-3 5 l5 -2 l-2 6 l5 -4 l2 6 l2 -6 l5 4 l-2 -6 l5 2 l-3 -5 l7 -1 l-5 -2 l4 -4 l-6 1 l2 -5 z"/>
  </g>
</svg>
