<svg xmlns="http://www.w3.org/2000/svg" viewBox="0 0 72 78" width="72" height="78">
  <!-- body -->
  <polygon points="8,40 36,54 64,40 64,66 36,76 8,66" fill="#2a1a0e" stroke="#050302" stroke-width="1"/>
  <polygon points="8,40 36,26 64,40 36,54" fill="#3a2214" stroke="#050302" stroke-width="1"/>
  <!-- screen -->
  <polygon points="22,22 36,14 50,22 50,36 36,44 22,36" fill="#0a0a0a" stroke="#050302"/>
  <polygon points="24,23 36,16 48,23 36,30" fill="#5fff8e" opacity="0.75"/>
  <text x="36" y="29" font-family="monospace" font-size="4" fill="#041506" text-anchor="middle" font-weight="bold">€420</text>
  <!-- keys -->
  <rect x="20" y="50" width="10" height="6" rx="1" fill="#c69a5b" stroke="#050302"/>
  <rect x="32" y="50" width="10" height="6" rx="1" fill="#c69a5b" stroke="#050302"/>
  <rect x="44" y="50" width="10" height="6" rx="1" fill="#c69a5b" stroke="#050302"/>
  <rect x="44" y="58" width="10" height="6" rx="1" fill="#5fff8e" stroke="#050302"/>
</svg>
