<svg xmlns="http://www.w3.org/2000/svg" viewBox="0 0 72 84" width="72" height="84">
  <!-- table top -->
  <polygon points="6,54 36,68 66,54 66,66 36,80 6,66" fill="#2a1a0e" stroke="#050302"/>
  <polygon points="6,54 36,42 66,54 36,68" fill="#3a2214" stroke="#050302"/>
  <!-- dab rig -->
  <g>
    <ellipse cx="34" cy="52" rx="9" ry="2.5" fill="rgba(0,0,0,0.35)"/>
    <rect x="26" y="28" width="16" height="22" rx="3" fill="#a7eaff" opacity="0.35" stroke="#0a1620"/>
    <ellipse cx="34" cy="40" rx="8" ry="5" fill="#a7eaff" opacity="0.3" stroke="#0a1620"/>
    <path d="M42 28 Q52 28 52 18 L46 18 L46 24 Q46 24 42 24 Z" fill="#ffd27a" opacity="0.6" stroke="#0a1620"/>
  </g>
  <!-- torch -->
  <rect x="12" y="46" width="6" height="14" fill="#1a1520" stroke="#050302"/>
  <rect x="13" y="42" width="4" height="6" fill="#ff8a5c"/>
  <!-- tool -->
  <rect x="54" y="46" width="4" height="14" fill="#2a3a4a" stroke="#050302"/>
</svg>
