<svg xmlns="http://www.w3.org/2000/svg" viewBox="0 0 64 86" width="64" height="86">
  <defs>
    <filter id="glowl" x="-40%" y="-40%" width="180%" height="180%">
      <feGaussianBlur stdDeviation="2.2"/>
    </filter>
  </defs>
  <g filter="url(#glowl)" opacity="0.65">
    <path d="M32 8 l-14 -6 l4 10 l-12 -2 l8 8 l-10 4 l14 2 l-6 10 l10 -4 l-4 12 l10 -8 l4 12 l4 -12 l10 8 l-4 -12 l10 4 l-6 -10 l14 -2 l-10 -4 l8 -8 l-12 2 l4 -10 z" fill="#5fff8e"/>
  </g>
  <path d="M32 8 l-14 -6 l4 10 l-12 -2 l8 8 l-10 4 l14 2 l-6 10 l10 -4 l-4 12 l10 -8 l4 12 l4 -12 l10 8 l-4 -12 l10 4 l-6 -10 l14 -2 l-10 -4 l8 -8 l-12 2 l4 -10 z" fill="#d8ffd8" stroke="#5fff8e" stroke-width="1"/>
  <rect x="30" y="60" width="4" height="22" fill="#1a2a1a"/>
  <rect x="24" y="80" width="16" height="4" fill="#1a2a1a"/>
</svg>
