<svg xmlns="http://www.w3.org/2000/svg" viewBox="0 0 156 140" width="156" height="140">
  <defs>
    <linearGradient id="swood" x1="0" x2="0" y1="0" y2="1">
      <stop offset="0" stop-color="#4a2a1b"/>
      <stop offset="1" stop-color="#2a170c"/>
    </linearGradient>
  </defs>
  <!-- back panel -->
  <rect x="8" y="10" width="140" height="116" fill="#1a0f08" stroke="#0a0504" stroke-width="1.5"/>
  <rect x="8" y="10" width="140" height="116" fill="url(#swood)" opacity="0.5"/>
  <!-- 3 shelves -->
  <rect x="4" y="34" width="148" height="6" fill="#3a2214" stroke="#0a0504" stroke-width="1"/>
  <rect x="4" y="72" width="148" height="6" fill="#3a2214" stroke="#0a0504" stroke-width="1"/>
  <rect x="4" y="108" width="148" height="6" fill="#3a2214" stroke="#0a0504" stroke-width="1"/>
  <!-- top LED strip -->
  <rect x="10" y="12" width="136" height="3" fill="#5fff8e" opacity="0.85"/>
  <!-- row 1 jars -->
  <g>
    <rect x="18" y="20" width="18" height="14" rx="2" fill="#2a1a0e" stroke="#0a0604"/>
    <rect x="18" y="16" width="18" height="6" fill="#c69a5b" stroke="#0a0604"/>
    <rect x="44" y="20" width="18" height="14" rx="2" fill="#1d2a18" stroke="#0a0604"/>
    <rect x="44" y="16" width="18" height="6" fill="#c69a5b" stroke="#0a0604"/>
    <rect x="70" y="20" width="18" height="14" rx="2" fill="#2a1a0e" stroke="#0a0604"/>
    <rect x="70" y="16" width="18" height="6" fill="#ffd27a" stroke="#0a0604"/>
    <rect x="96" y="20" width="18" height="14" rx="2" fill="#1d2a18" stroke="#0a0604"/>
    <rect x="96" y="16" width="18" height="6" fill="#c69a5b" stroke="#0a0604"/>
    <rect x="122" y="20" width="18" height="14" rx="2" fill="#2a1a0e" stroke="#0a0604"/>
    <rect x="122" y="16" width="18" height="6" fill="#ffd27a" stroke="#0a0604"/>
  </g>
  <!-- row 2 -->
  <g>
    <rect x="14" y="56" width="20" height="16" rx="2" fill="#1d2a18" stroke="#0a0604"/>
    <rect x="14" y="52" width="20" height="6" fill="#c69a5b" stroke="#0a0604"/>
    <rect x="42" y="56" width="20" height="16" rx="2" fill="#2a1a0e" stroke="#0a0604"/>
    <rect x="42" y="52" width="20" height="6" fill="#ffd27a" stroke="#0a0604"/>
    <rect x="70" y="56" width="20" height="16" rx="2" fill="#1d2a18" stroke="#0a0604"/>
    <rect x="70" y="52" width="20" height="6" fill="#c69a5b" stroke="#0a0604"/>
    <rect x="98" y="56" width="20" height="16" rx="2" fill="#2a1a0e" stroke="#0a0604"/>
    <rect x="98" y="52" width="20" height="6" fill="#ffd27a" stroke="#0a0604"/>
    <rect x="126" y="56" width="20" height="16" rx="2" fill="#1d2a18" stroke="#0a0604"/>
    <rect x="126" y="52" width="20" height="6" fill="#c69a5b" stroke="#0a0604"/>
  </g>
  <!-- row 3 -->
  <g>
    <rect x="16" y="92" width="24" height="18" rx="2" fill="#2a1a0e" stroke="#0a0604"/>
    <rect x="16" y="86" width="24" height="8" fill="#ffd27a" stroke="#0a0604"/>
    <rect x="48" y="92" width="24" height="18" rx="2" fill="#1d2a18" stroke="#0a0604"/>
    <rect x="48" y="86" width="24" height="8" fill="#c69a5b" stroke="#0a0604"/>
    <rect x="80" y="92" width="24" height="18" rx="2" fill="#2a1a0e" stroke="#0a0604"/>
    <rect x="80" y="86" width="24" height="8" fill="#ffd27a" stroke="#0a0604"/>
    <rect x="112" y="92" width="24" height="18" rx="2" fill="#1d2a18" stroke="#0a0604"/>
    <rect x="112" y="86" width="24" height="8" fill="#c69a5b" stroke="#0a0604"/>
  </g>
  <!-- bottom LED -->
  <rect x="10" y="122" width="136" height="3" fill="#5fff8e" opacity="0.5"/>
</svg>
